<svg width="32" height="32" viewBox="0 0 32 32" fill="none" xmlns="http://www.w3.org/2000/svg">
    <circle cx="16" cy="16" r="15.5" fill="white" stroke="white"/>
    <circle cx="16" cy="16" r="15.5" fill="white" stroke="white"/>
    <path d="M15.4822 21.0415C15.2819 21.0416 15.0836 21.0018 14.8987 20.9246C14.7139 20.8473 14.5463 20.7341 14.4056 20.5915L11.1648 17.3245C10.1287 16.2794 9.42509 14.9509 9.14258 13.5066C8.86006 12.0623 9.0113 10.5666 9.57724 9.20807C10.1432 7.84952 11.0985 6.68884 12.3229 5.87224C13.5472 5.05563 14.9859 4.61962 16.4576 4.61914H16.4876C17.4671 4.62048 18.4367 4.81605 19.3401 5.19453C20.2436 5.57302 21.0631 6.1269 21.7511 6.82414C21.8914 6.9655 22.0026 7.13312 22.0781 7.31743C22.1537 7.50174 22.1922 7.69913 22.1915 7.89833C22.1908 8.09753 22.1509 8.29464 22.074 8.4784C21.9971 8.66217 21.8848 8.82899 21.7434 8.96934C21.602 9.10969 21.4344 9.22082 21.2501 9.29639C21.0658 9.37196 20.8684 9.41049 20.6692 9.40978C20.47 9.40906 20.2729 9.36912 20.0891 9.29223C19.9054 9.21534 19.7386 9.10301 19.5982 8.96165C19.1945 8.52679 18.7074 8.17757 18.166 7.93478C17.6245 7.69198 17.0398 7.56056 16.4465 7.54834C15.8533 7.53611 15.2636 7.64333 14.7126 7.86362C14.1616 8.08391 13.6606 8.41277 13.2393 8.83063C12.818 9.24849 12.485 9.74682 12.2602 10.296C12.0354 10.8451 11.9234 11.4339 11.9307 12.0272C11.9381 12.6206 12.0647 13.2064 12.303 13.7498C12.5414 14.2932 12.8866 14.7831 13.3181 15.1904L16.5588 18.4574C16.7696 18.67 16.9127 18.9402 16.9701 19.234C17.0276 19.5277 16.9968 19.832 16.8817 20.1083C16.7666 20.3846 16.5722 20.6207 16.3232 20.7867C16.0742 20.9528 15.7815 21.0415 15.4822 21.0415Z"
          fill="url(#paint0_linear)"/>
    <path d="M14.8014 27.3809H14.7703C13.7908 27.3795 12.8212 27.1839 11.9178 26.8055C11.0143 26.427 10.1948 25.8731 9.5068 25.1759C9.22335 24.8904 9.06494 24.5039 9.06642 24.1016C9.06715 23.9024 9.10711 23.7053 9.18402 23.5215C9.26094 23.3377 9.37329 23.1709 9.51468 23.0305C9.65606 22.8902 9.8237 22.7791 10.008 22.7035C10.1924 22.6279 10.3898 22.5894 10.589 22.5902C10.9913 22.5916 11.3766 22.7529 11.6601 23.0384C12.0682 23.4521 12.5543 23.7808 13.0903 24.0054C13.6263 24.2299 14.2015 24.346 14.7827 24.3468H14.8011C15.6738 24.3457 16.5267 24.0866 17.2526 23.602C17.9784 23.1174 18.5448 22.429 18.8804 21.6234C19.216 20.8177 19.3059 19.9308 19.1387 19.0743C18.9715 18.2177 18.5548 17.4296 17.9409 16.8093L14.7002 13.5427C14.4167 13.2572 14.2583 12.8708 14.2597 12.4685C14.2612 12.0662 14.4224 11.6809 14.7079 11.3975C14.9934 11.114 15.3797 10.9556 15.7821 10.957C16.1844 10.9585 16.5696 11.1197 16.8531 11.4052L20.0927 14.674C22.9881 17.5927 22.9689 22.324 20.0503 25.2183C19.3606 25.9062 18.542 26.4514 17.6413 26.8225C16.7406 27.1936 15.7756 27.3833 14.8014 27.3809Z"
          fill="url(#paint1_linear)"/>
    <defs>
        <linearGradient id="paint0_linear" x1="9.00221" y1="12.8305" x2="22.1917" y2="12.8305"
                        gradientUnits="userSpaceOnUse">
            <stop offset="0.1" stop-color="#9098FF"/>
            <stop offset="1" stop-color="#6BA7FF"/>
        </linearGradient>
        <linearGradient id="paint1_linear" x1="3107.5" y1="7968.83" x2="7743.75" y2="7968.83"
                        gradientUnits="userSpaceOnUse">
            <stop offset="0.1" stop-color="#9098FF"/>
            <stop offset="1" stop-color="#6BA7FF"/>
        </linearGradient>
    </defs>
</svg>
