<svg width="35" height="35" viewBox="0 0 35 35" fill="none" xmlns="http://www.w3.org/2000/svg">
    <path d="M24.6891 12.1493C24.2738 11.7849 23.7806 11.4959 23.2377 11.2987C22.6949 11.1015 22.1131 11 21.5255 11C20.9379 11 20.3561 11.1015 19.8133 11.2987C19.2704 11.4959 18.7772 11.7849 18.3619 12.1493L17.4998 12.9051L16.6377 12.1493C15.7987 11.4137 14.6607 11.0004 13.4741 11.0004C12.2875 11.0004 11.1495 11.4137 10.3104 12.1493C9.47137 12.8849 9 13.8827 9 14.923C9 15.9634 9.47137 16.9611 10.3104 17.6967L11.1725 18.4526L17.4998 24L23.8271 18.4526L24.6891 17.6967C25.1047 17.3325 25.4344 16.9001 25.6593 16.4242C25.8842 15.9483 26 15.4382 26 14.923C26 14.4079 25.8842 13.8977 25.6593 13.4218C25.4344 12.9459 25.1047 12.5135 24.6891 12.1493Z"
          fill="#0F0F0F"/>
    <circle cx="17.5" cy="17.5" r="17" stroke="black"/>
</svg>
