<svg width="20" height="20" viewBox="0 0 20 20" fill="none" xmlns="http://www.w3.org/2000/svg">
<path fill-rule="evenodd" clip-rule="evenodd" d="M3.14782 5.17829H2.143C1.74851 5.17829 1.42871 4.85849 1.42871 4.46401C1.42871 4.06952 1.74851 3.74972 2.143 3.74972H3.14782C3.44909 2.81713 4.32441 2.14258 5.35728 2.14258C6.39015 2.14258 7.2655 2.81713 7.56678 3.74972H17.8573C18.2518 3.74972 18.5716 4.06952 18.5716 4.46401C18.5716 4.85849 18.2518 5.17829 17.8573 5.17829H7.56678C7.2655 6.11089 6.39015 6.78544 5.35728 6.78544C4.32441 6.78544 3.44909 6.11089 3.14782 5.17829ZM4.10728 4.46401C4.10728 3.77365 4.66692 3.21401 5.35728 3.21401C6.04764 3.21401 6.60728 3.77365 6.60728 4.46401C6.60728 5.15436 6.04764 5.71401 5.35728 5.71401C4.66692 5.71401 4.10728 5.15436 4.10728 4.46401Z" fill="black"/>
<path fill-rule="evenodd" clip-rule="evenodd" d="M2.143 10.8931H12.4614C12.7627 11.8257 13.638 12.5003 14.6709 12.5003C15.7038 12.5003 16.5791 11.8257 16.8804 10.8931H17.8573C18.2518 10.8931 18.5716 10.5734 18.5716 10.1789C18.5716 9.78435 18.2518 9.46456 17.8573 9.46456H16.8804C16.5791 8.53199 15.7038 7.85742 14.6709 7.85742C13.638 7.85742 12.7627 8.53199 12.4614 9.46456H2.143C1.74851 9.46456 1.42871 9.78435 1.42871 10.1789C1.42871 10.5734 1.74851 10.8931 2.143 10.8931ZM14.6709 8.92885C13.9806 8.92885 13.4209 9.48849 13.4209 10.1789C13.4209 10.8692 13.9806 11.4289 14.6709 11.4289C15.3613 11.4289 15.9209 10.8692 15.9209 10.1789C15.9209 9.48849 15.3613 8.92885 14.6709 8.92885Z" fill="black"/>
<path fill-rule="evenodd" clip-rule="evenodd" d="M7.4335 16.608H2.143C1.74851 16.608 1.42871 16.2882 1.42871 15.8937C1.42871 15.4992 1.74851 15.1794 2.143 15.1794H7.4335C7.73478 14.2468 8.61014 13.5723 9.643 13.5723C10.6759 13.5723 11.5512 14.2468 11.8525 15.1794H17.8573C18.2518 15.1794 18.5716 15.4992 18.5716 15.8937C18.5716 16.2882 18.2518 16.608 17.8573 16.608H11.8525C11.5512 17.5406 10.6759 18.2151 9.643 18.2151C8.61014 18.2151 7.73478 17.5406 7.4335 16.608ZM8.393 15.8937C8.393 15.2033 8.95264 14.6437 9.643 14.6437C10.3334 14.6437 10.893 15.2033 10.893 15.8937C10.893 16.5841 10.3334 17.1437 9.643 17.1437C8.95264 17.1437 8.393 16.5841 8.393 15.8937Z" fill="black"/>
</svg>
