<svg width="14" height="14" viewBox="0 0 14 14" fill="none" xmlns="http://www.w3.org/2000/svg">
<path d="M12.0747 2.06089C11.7815 1.72455 11.4333 1.45775 11.0502 1.27572C10.667 1.09369 10.2563 1 9.84153 1C9.42676 1 9.01606 1.09369 8.63289 1.27572C8.24972 1.45775 7.90158 1.72455 7.60837 2.06089L6.99985 2.75857L6.39132 2.06089C5.79905 1.38184 4.99576 1.00035 4.15816 1.00035C3.32057 1.00035 2.51728 1.38184 1.92501 2.06089C1.33273 2.73994 1 3.66092 1 4.62124C1 5.58157 1.33273 6.50255 1.92501 7.1816L2.53353 7.87928L6.99985 13L11.4662 7.87928L12.0747 7.1816C12.368 6.84543 12.6007 6.44628 12.7595 6.00697C12.9183 5.56765 13 5.09678 13 4.62124C13 4.14571 12.9183 3.67484 12.7595 3.23552C12.6007 2.79621 12.368 2.39706 12.0747 2.06089V2.06089Z" stroke="white" stroke-width="2" stroke-linecap="round" stroke-linejoin="round"/>
</svg>
