<svg width="15" height="12" viewBox="0 0 15 12" fill="none" xmlns="http://www.w3.org/2000/svg">
    <path d="M12.8731 1.86445C12.5808 1.59039 12.2337 1.37299 11.8516 1.22467C11.4696 1.07634 11.0601 1 10.6465 1C10.233 1 9.82351 1.07634 9.44147 1.22467C9.05942 1.37299 8.71231 1.59039 8.41996 1.86445L7.81323 2.43294L7.2065 1.86445C6.61598 1.31114 5.81505 1.00029 4.97992 1.00029C4.14479 1.00029 3.34386 1.31114 2.75334 1.86445C2.16281 2.41776 1.83105 3.16822 1.83105 3.95072C1.83105 4.73322 2.16281 5.48368 2.75334 6.03699L3.36007 6.60548L7.81323 10.778L12.2664 6.60548L12.8731 6.03699C13.1656 5.76306 13.3976 5.43782 13.5559 5.07985C13.7142 4.72189 13.7957 4.3382 13.7957 3.95072C13.7957 3.56324 13.7142 3.17955 13.5559 2.82158C13.3976 2.46361 13.1656 2.13837 12.8731 1.86445Z"
          stroke="white" stroke-width="2" stroke-linecap="round" stroke-linejoin="round"/>
</svg>
