<svg id="Layer_1" xmlns="http://www.w3.org/2000/svg" viewBox="0 0 200 200">
    <title>Artboard 2 copy 24</title>
    <path d="M151.05,58.68a33.55,33.55,0,0,0-47.72-.27l-3.27,3.27-3.27-3.27a33.55,33.55,0,0,0-47.45,47.44l41.94,41.94a12.43,12.43,0,0,0,17.56,0l41.67-41.66C163.59,93,163.84,71.76,151.05,58.68Zm-4.94,43.06-41.66,41.65a6.2,6.2,0,0,1-8.78,0L53.74,101.46A27.34,27.34,0,1,1,92.4,62.8l3.27,3.28-5,5a3.11,3.11,0,0,0,2.19,5.3,3.13,3.13,0,0,0,2.2-.91L107.73,62.8a27.32,27.32,0,0,1,38.88.23C157,73.68,156.8,91.05,146.11,101.74Z"/>
</svg>