<svg width="74" height="74" viewBox="0 0 74 74" fill="none" xmlns="http://www.w3.org/2000/svg">
<path fill-rule="evenodd" clip-rule="evenodd" d="M16.0009 52.4172C14.9262 55.0118 14.3309 57.7776 14.2419 60.5804C8.06814 54.6207 4.22857 46.2587 4.22857 37C4.22857 18.9008 18.9008 4.22857 37 4.22857C55.0992 4.22857 69.7714 18.9008 69.7714 37C69.7714 45.7813 66.3176 53.756 60.6943 59.6396C60.5147 57.1597 59.9385 54.721 58.9842 52.4172C57.8152 49.5949 56.1017 47.0304 53.9416 44.8703C52.4155 43.3442 50.5164 42.041 48.5379 40.9953C47.0251 40.1957 45.2038 40.4551 43.5994 41.05C41.5781 41.7995 39.0713 42.2853 37 42.2853C34.9495 42.2853 32.794 41.8091 30.9733 41.0724C29.4146 40.4417 27.6358 40.1814 26.167 41.0001C24.2923 42.045 22.5673 43.3465 21.0435 44.8703C18.8834 47.0304 17.1699 49.5949 16.0009 52.4172ZM74 37C74 57.4345 57.4345 74 37 74C16.5655 74 0 57.4345 0 37C0 16.5655 16.5655 0 37 0C57.4345 0 74 16.5655 74 37ZM37 38.0571C43.4223 38.0571 48.6286 32.8509 48.6286 26.4286C48.6286 20.0063 43.4223 14.8 37 14.8C30.5777 14.8 25.3714 20.0063 25.3714 26.4286C25.3714 32.8509 30.5777 38.0571 37 38.0571Z" fill="#5540C7"/>
</svg>
