<svg width="43" height="76" viewBox="0 0 43 76" fill="none" xmlns="http://www.w3.org/2000/svg">
<path fill-rule="evenodd" clip-rule="evenodd" d="M23.5645 75.1439C22.4243 76.2854 20.5757 76.2854 19.4355 75.1439L0.855134 56.5415C-0.28505 55.4 -0.28505 53.5492 0.855133 52.4076C1.99532 51.2661 3.84392 51.2661 4.98411 52.4076L18.5804 66.02L18.5804 2.92308C18.5804 1.30871 19.8875 1.01028e-06 21.5 9.39798e-07C23.1125 8.69315e-07 24.4196 1.30871 24.4196 2.92308L24.4196 66.02L38.0159 52.4077C39.1561 51.2661 41.0047 51.2661 42.1449 52.4077C43.285 53.5492 43.285 55.4 42.1449 56.5415L23.5645 75.1439Z" fill="#F08778"/>
</svg>
