<svg width="55" height="55" viewBox="0 0 55 55" fill="none" xmlns="http://www.w3.org/2000/svg">
<path d="M53.1383 7.02083C54.7444 5.41472 54.7444 2.8107 53.1383 1.20459V1.20459C51.5322 -0.401528 48.9282 -0.401528 47.3221 1.20458L27.1715 21.3552L7.02083 1.20458C5.41472 -0.401528 2.8107 -0.401528 1.20458 1.20458V1.20458C-0.401528 2.8107 -0.401528 5.41472 1.20458 7.02083L21.3552 27.1715L1.20459 47.3221C-0.401528 48.9282 -0.401528 51.5322 1.20458 53.1383V53.1383C2.8107 54.7444 5.41472 54.7444 7.02083 53.1383L27.1715 32.9877L47.3221 53.1383C48.9282 54.7444 51.5322 54.7444 53.1383 53.1383V53.1383C54.7444 51.5322 54.7444 48.9282 53.1383 47.3221L32.9877 27.1715L53.1383 7.02083Z" fill="#5540C7"/>
</svg>
