<svg width="106" height="92" viewBox="0 0 106 92" fill="none" xmlns="http://www.w3.org/2000/svg">
<path d="M52.5953 19.3684C65.792 19.3684 76.5023 30.2147 76.5023 43.5789C76.5023 46.7263 75.8807 49.68 74.781 52.44L88.7427 66.5789C95.9626 60.4779 101.652 52.5853 105.143 43.5789C96.8711 22.3221 76.4545 7.26316 52.5475 7.26316C45.8536 7.26316 39.4465 8.47368 33.5176 10.6526L43.8454 21.1116C46.5708 19.9979 49.4874 19.3684 52.5953 19.3684ZM4.78139 6.14947L15.683 17.1895L17.8824 19.4168C9.9453 25.6632 3.72949 33.9916 0 43.5789C8.27181 64.8358 28.6884 79.8947 52.5953 79.8947C60.0065 79.8947 67.083 78.4421 73.5378 75.8274L75.546 77.8611L89.5555 92L95.6279 85.8505L10.8538 0L4.78139 6.14947ZM31.2225 32.9263L38.6337 40.4316C38.3946 41.4484 38.2512 42.5137 38.2512 43.5789C38.2512 51.6168 44.6582 58.1053 52.5953 58.1053C53.6472 58.1053 54.6992 57.96 55.7032 57.7179L63.1144 65.2232C59.9109 66.8211 56.3726 67.7895 52.5953 67.7895C39.3987 67.7895 28.6884 56.9432 28.6884 43.5789C28.6884 39.7537 29.6446 36.1705 31.2225 32.9263V32.9263ZM51.8303 29.1495L66.8917 44.4021L66.9873 43.6274C66.9873 35.5895 60.5803 29.1011 52.6432 29.1011L51.8303 29.1495Z" fill="#C0C0C0"/>
</svg>
