<svg width="103" height="70" viewBox="0 0 103 70" fill="none" xmlns="http://www.w3.org/2000/svg">
<path fill-rule="evenodd" clip-rule="evenodd" d="M0 34.8698C8.09961 14.4592 28.0909 0 51.5 0C74.9324 0 94.9004 14.4592 103 34.8698C94.9004 55.2802 74.9324 69.7396 51.5 69.7396C28.0909 69.7396 8.09961 55.2802 0 34.8698ZM28.0909 34.8696C28.0909 47.7017 38.5782 58.1162 51.5 58.1162C64.4218 58.1162 74.9091 47.7019 74.9091 34.8698C74.9091 22.0377 64.4218 11.6232 51.5 11.6232C38.5782 11.6232 28.0909 22.0375 28.0909 34.8696ZM37.4494 34.8683C37.4494 27.1737 43.7464 20.9204 51.4948 20.9204C59.2431 20.9204 65.5403 27.1737 65.5403 34.8683C65.5403 42.563 59.2433 48.8163 51.4948 48.8163C43.7464 48.8163 37.4494 42.563 37.4494 34.8683Z" fill="#9098FF"/>
</svg>
