<svg width="97" height="80" viewBox="0 0 97 80" fill="none" xmlns="http://www.w3.org/2000/svg">
<path d="M69.4961 0.00187018C61.4045 -0.0412077 53.7121 3.4989 48.4999 9.66466C43.3203 3.45676 35.6066 -0.0934162 27.5036 0.00187018C12.3137 0.00187018 0 12.2685 0 27.4003C0 53.3313 45.4303 78.6504 47.2722 79.629C48.0153 80.1237 48.9845 80.1237 49.7278 79.629C51.5697 78.6504 97 53.6982 97 27.4003C97 12.2685 84.686 0.00187018 69.4961 0.00187018ZM48.4999 74.7364C41.3784 70.5777 4.9114 48.4387 4.9114 27.4003C4.9114 14.9707 15.0263 4.89425 27.5039 4.89425C35.1448 4.79428 42.2954 8.6336 46.4127 15.0464C47.2486 16.1947 48.8611 16.4506 50.0139 15.6176C50.2341 15.4584 50.4277 15.2657 50.5873 15.0464C57.4157 4.64328 71.4172 1.72428 81.8602 8.52661C88.2531 12.6909 92.1011 19.791 92.0884 27.4001C92.0886 48.6831 55.6214 70.6999 48.4999 74.7364Z" fill="#9098FF"/>
</svg>
