<svg width="74" height="74" viewBox="0 0 74 74" fill="none" xmlns="http://www.w3.org/2000/svg">
<path fill-rule="evenodd" clip-rule="evenodd" d="M69.7714 37C69.7714 55.0992 55.0992 69.7714 37 69.7714C18.9008 69.7714 4.22857 55.0992 4.22857 37C4.22857 18.9008 18.9008 4.22857 37 4.22857C55.0992 4.22857 69.7714 18.9008 69.7714 37ZM37 74C57.4345 74 74 57.4345 74 37C74 16.5655 57.4345 0 37 0C16.5655 0 0 16.5655 0 37C0 57.4345 16.5655 74 37 74ZM36.9984 17.5703C44.3753 17.5703 49.3317 22.187 49.3317 27.6585C49.3317 32.3891 47.3722 34.498 45.1245 36.5498C44.1258 37.4246 43.0424 38.1876 42.0979 38.8527C41.1349 39.5309 40.3165 40.1073 39.88 40.5965C39.3613 41.2234 39.246 41.6794 39.246 42.7053L39.1884 45.3841H31.3504L31.2928 41.6794C31.2351 38.1457 32.503 36.3788 34.9236 34.669L38.4392 32.1612C39.7071 31.2492 40.975 30.2233 40.975 28.6274C40.975 26.2336 38.9002 24.9227 35.4423 24.9227C31.9267 24.9227 29.1027 26.6326 27.3161 28.3425L24.665 21.959C25.8753 20.6481 29.5638 17.5703 36.9984 17.5703ZM29.852 53.1925C29.852 50.1148 32.042 48.2909 35.2694 48.2909C38.4968 48.2909 40.6868 50.1148 40.6868 53.1925C40.6868 56.2703 38.4968 58.0941 35.2694 58.0941C32.042 58.0941 29.852 56.2703 29.852 53.1925Z" fill="#5540C7"/>
</svg>
