<svg width="74" height="74" viewBox="0 0 74 74" fill="none" xmlns="http://www.w3.org/2000/svg">
    <path d="M37 23.5449C34.3388 23.5449 31.7374 24.334 29.5247 25.8125C27.312 27.2909 25.5875 29.3923 24.5691 31.8509C23.5507 34.3095 23.2842 37.0149 23.8034 39.625C24.3226 42.235 25.6041 44.6325 27.4858 46.5142C29.3675 48.3959 31.765 49.6774 34.375 50.1966C36.9851 50.7158 39.6905 50.4493 42.1491 49.4309C44.6077 48.4125 46.7091 46.688 48.1875 44.4753C49.666 42.2626 50.4551 39.6612 50.4551 37C50.4555 35.2329 50.1078 33.4831 49.4318 31.8504C48.7557 30.2178 47.7647 28.7344 46.5152 27.4848C45.2656 26.2353 43.7822 25.2443 42.1496 24.5682C40.5169 23.8922 38.7671 23.5444 37 23.5449V23.5449ZM67.0697 33.6346C66.3089 26.8139 63.2509 20.4548 58.398 15.602C53.5452 10.7491 47.1861 7.69107 40.3654 6.93026V0H33.6378V6.93026C26.8171 7.69107 20.458 10.7491 15.6052 15.602C10.7523 20.4548 7.69429 26.8139 6.93348 33.6346H0V40.3622H6.93026C7.69107 47.1829 10.7491 53.542 15.602 58.3948C20.4548 63.2477 26.8139 66.3057 33.6346 67.0665V74H40.3622V67.0697C47.1829 66.3089 53.542 63.2509 58.3948 58.398C63.2477 53.5452 66.3057 47.1861 67.0665 40.3654H74V33.6378H67.0697V33.6346ZM37 60.5449C32.3433 60.5449 27.7911 59.164 23.9192 56.5768C20.0472 53.9897 17.0294 50.3125 15.2474 46.0102C13.4653 41.708 12.9991 36.9739 13.9075 32.4066C14.816 27.8394 17.0585 23.6441 20.3513 20.3513C23.6441 17.0585 27.8394 14.816 32.4066 13.9075C36.9739 12.9991 41.708 13.4653 46.0102 15.2474C50.3125 17.0294 53.9897 20.0472 56.5768 23.9192C59.164 27.7911 60.5449 32.3433 60.5449 37C60.547 40.0926 59.9394 43.1552 58.7569 46.0127C57.5744 48.8703 55.8402 51.4667 53.6534 53.6534C51.4667 55.8402 48.8703 57.5744 46.0127 58.7569C43.1552 59.9394 40.0926 60.547 37 60.5449V60.5449Z" fill="#333333" />
</svg>
