<svg width="61" height="90" viewBox="0 0 61 90" fill="none" xmlns="http://www.w3.org/2000/svg">
<path fill-rule="evenodd" clip-rule="evenodd" d="M39.4705 10.7647C39.4705 16.7099 35.4542 21.5294 30.4999 21.5294C25.5456 21.5294 21.5293 16.7099 21.5293 10.7647C21.5293 4.81952 25.5456 0 30.4999 0C35.4542 0 39.4705 4.81952 39.4705 10.7647ZM12.7497 48.2954C14.6096 48.6739 16.4695 48.9577 18.4273 49.2415L19.7978 72.1359C19.8957 73.9334 21.4619 75.3525 23.3219 75.3525H34.0898C35.9497 75.3525 37.516 73.9334 37.6138 72.1359L38.9843 49.2415C40.9421 48.9577 42.802 48.6739 44.662 48.2954C45.9345 48.0116 46.8155 46.7817 46.6198 45.5519L45.4451 35.713C44.662 29.6582 39.3759 25.1172 33.1109 25.1172H24.3986C18.1337 25.1172 12.8476 29.6582 12.0645 35.713L10.7919 45.5519C10.5961 46.7817 11.4771 48.0116 12.7497 48.2954ZM45.1955 64.5879L44.8258 70.7318C51.203 72.3581 54.9 74.7976 54.9 76.3335C54.9 78.8634 45.6576 83.5617 30.5924 83.5617C15.4348 83.5617 6.28485 78.8634 6.28485 76.3335C6.28485 74.7072 9.88939 72.2677 16.3591 70.7318L15.9894 64.5879C6.74697 66.5756 0 70.5511 0 76.3335C0 85.0976 15.3424 89.7055 30.5 89.7055C45.6576 89.7055 61 85.0976 61 76.3335C61 70.5511 54.253 66.5756 45.1955 64.5879Z" fill="#9098FF"/>
</svg>
