<svg width="70" height="70" viewBox="0 0 70 70" fill="none" xmlns="http://www.w3.org/2000/svg">
<circle cx="35" cy="35" r="35" fill="#C3BEE1" fill-opacity="0.5"/>
<path d="M34.5 17C29.8587 17 25.4075 18.8437 22.1256 22.1256C18.8437 25.4075 17 29.8587 17 34.5C17 39.1413 18.8437 43.5925 22.1256 46.8744C25.4075 50.1563 29.8587 52 34.5 52C39.1413 52 43.5925 50.1563 46.8744 46.8744C50.1563 43.5925 52 39.1413 52 34.5C52 29.8587 50.1563 25.4075 46.8744 22.1256C43.5925 18.8437 39.1413 17 34.5 17ZM43.9896 27.1062C45.5853 27.0592 46.4058 28.998 45.2611 30.1106L33.0651 42.3066C32.6828 42.689 32.2421 42.9964 31.7048 43.0094C31.6982 43.0099 31.6916 43.0103 31.685 43.0107C31.666 43.0106 31.6471 43.0101 31.6282 43.0094C31.0792 43.0069 30.6288 42.7017 30.2344 42.3073L24.1367 36.209C23.0105 35.1142 23.7849 33.2049 25.3556 33.2039C25.8286 33.2037 26.2816 33.3951 26.6113 33.7344L31.6494 38.7725L42.7865 27.6354C43.1036 27.3094 43.5351 27.1196 43.9896 27.1062Z" fill="#5A45C9"/>
</svg>
