<svg width="100" height="100" xmlns="http://www.w3.org/2000/svg">

 <g>
  <title>background</title>
  <rect fill="none" id="canvas_background" height="102" width="102" y="-1" x="-1"/>
 </g>
 <g>
  <title>Layer 1</title>
  <circle id="svg_2" r="45" fill="#5540c6" cy="50" cx="50"/>
  <path id="svg_3" fill-rule="evenodd" fill="#FFFFFF" d="m51.474,60.754c-1.733,1.688 -3.451,3.348 -5.153,5.021c-0.595,0.586 -1.264,0.91 -2.118,0.865c-0.583,-0.031 -0.909,-0.287 -1.088,-0.84c-1.304,-4.047 -2.627,-8.084 -3.924,-12.135c-0.126,-0.393 -0.312,-0.584 -0.71,-0.707c-3.072,-0.938 -6.138,-1.898 -9.199,-2.871c-0.471,-0.15 -0.946,-0.346 -1.353,-0.623c-0.629,-0.426 -0.721,-1.121 -0.157,-1.621c0.521,-0.461 1.143,-0.863 1.789,-1.119c3.755,-1.488 7.53,-2.928 11.299,-4.381c9.565,-3.693 19.13,-7.383 28.696,-11.076c1.819,-0.703 3.217,0.287 3.028,2.254c-0.121,1.258 -0.447,2.496 -0.71,3.738c-2.077,9.807 -4.156,19.615 -6.244,29.42c-0.496,2.328 -2.131,2.936 -4.047,1.523c-3.209,-2.365 -6.415,-4.738 -9.622,-7.107c-0.153,-0.111 -0.312,-0.218 -0.487,-0.341zm-7.203,2.978c0.036,-0.01 0.072,-0.02 0.108,-0.029c0.02,-0.092 0.049,-0.182 0.057,-0.273c0.206,-2.223 0.424,-4.445 0.603,-6.672c0.04,-0.496 0.21,-0.848 0.583,-1.182c2.958,-2.645 5.898,-5.307 8.844,-7.963c3.261,-2.941 6.523,-5.879 9.772,-8.832c0.201,-0.182 0.285,-0.492 0.423,-0.744c-0.306,-0.033 -0.634,-0.156 -0.912,-0.084c-0.379,0.098 -0.738,0.318 -1.076,0.531c-7.197,4.533 -14.388,9.074 -21.59,13.598c-0.407,0.256 -0.483,0.473 -0.328,0.92c0.531,1.525 1.014,3.064 1.515,4.6c0.667,2.044 1.334,4.087 2.001,6.13z" clip-rule="evenodd"/>
 </g>
</svg>